<svg xmlns="http://www.w3.org/2000/svg" viewBox="0 0 240 200" fill="none">
  <defs>
    <linearGradient id="fs-bg" x1="0" y1="0" x2="240" y2="200" gradientUnits="userSpaceOnUse">
      <stop stop-color="#1b5e20" stop-opacity="0.3"/>
      <stop offset="1" stop-color="#66bb6a" stop-opacity="0.08"/>
    </linearGradient>
    <linearGradient id="fs-screen" x1="24" y1="40" x2="124" y2="120" gradientUnits="userSpaceOnUse">
      <stop stop-color="#143d32"/>
      <stop offset="1" stop-color="#0d2821"/>
    </linearGradient>
    <linearGradient id="fs-server" x1="148" y1="48" x2="204" y2="152" gradientUnits="userSpaceOnUse">
      <stop stop-color="#2e7d32"/>
      <stop offset="1" stop-color="#1b5e20"/>
    </linearGradient>
    <filter id="fs-glow" x="-20%" y="-20%" width="140%" height="140%">
      <feGaussianBlur stdDeviation="3" result="blur"/>
      <feMerge><feMergeNode in="blur"/><feMergeNode in="SourceGraphic"/></feMerge>
    </filter>
  </defs>
  <rect width="240" height="200" fill="url(#fs-bg)" rx="16"/>
  <rect x="24" y="36" width="108" height="72" rx="10" fill="url(#fs-screen)" stroke="#81c784" stroke-width="2"/>
  <rect x="34" y="50" width="88" height="10" rx="3" fill="#388e3c" opacity="0.9"/>
  <rect x="34" y="68" width="58" height="7" rx="2" fill="#66bb6a" opacity="0.7"/>
  <rect x="34" y="82" width="72" height="7" rx="2" fill="#43a047" opacity="0.6"/>
  <rect x="34" y="96" width="48" height="7" rx="2" fill="#2e7d32" opacity="0.5"/>
  <rect x="148" y="48" width="68" height="104" rx="10" fill="url(#fs-server)" stroke="#a5d6a7" stroke-width="2" filter="url(#fs-glow)"/>
  <circle cx="182" cy="70" r="8" fill="#66bb6a"/>
  <circle cx="182" cy="70" r="4" fill="#c8e6c9"/>
  <rect x="162" y="90" width="40" height="5" rx="2" fill="#a5d6a7" opacity="0.8"/>
  <rect x="162" y="102" width="40" height="5" rx="2" fill="#81c784" opacity="0.6"/>
  <rect x="162" y="114" width="40" height="5" rx="2" fill="#66bb6a" opacity="0.5"/>
  <rect x="162" y="126" width="40" height="5" rx="2" fill="#43a047" opacity="0.4"/>
  <path d="M132 72 H148 V100 H168" stroke="#81c784" stroke-width="2.5" stroke-linecap="round" stroke-linejoin="round"/>
  <circle cx="168" cy="100" r="4" fill="#66bb6a"/>
</svg>
